<mxfile host="app.diagrams.net" modified="2023-05-27T10:18:41.446Z" agent="Mozilla/5.0 (Windows NT 10.0; Win64; x64) AppleWebKit/537.36 (KHTML, like Gecko) Chrome/113.0.0.0 Safari/537.36" etag="cqFjSHEeiiusxYLwG_6Q" version="21.3.4" type="device">
  <diagram name="Страница 1" id="9B35GfDSIohQXYZQCniU">
    <mxGraphModel dx="1467" dy="878" grid="0" gridSize="10" guides="1" tooltips="1" connect="1" arrows="1" fold="1" page="0" pageScale="1" pageWidth="827" pageHeight="1169" math="0" shadow="0">
      <root>
        <mxCell id="0" />
        <mxCell id="1" parent="0" />
        <mxCell id="1qNQSLTpCKg1M4f5Vl8u-1" value="brand" style="shape=table;startSize=30;container=1;collapsible=0;childLayout=tableLayout;fixedRows=1;rowLines=0;fontStyle=0;strokeColor=default;fontSize=16;" vertex="1" parent="1">
          <mxGeometry x="-230" y="-33" width="180" height="90" as="geometry" />
        </mxCell>
        <mxCell id="1qNQSLTpCKg1M4f5Vl8u-2" value="" style="shape=tableRow;horizontal=0;startSize=0;swimlaneHead=0;swimlaneBody=0;top=0;left=0;bottom=0;right=0;collapsible=0;dropTarget=0;fillColor=none;points=[[0,0.5],[1,0.5]];portConstraint=eastwest;strokeColor=inherit;fontSize=16;" vertex="1" parent="1qNQSLTpCKg1M4f5Vl8u-1">
          <mxGeometry y="30" width="180" height="30" as="geometry" />
        </mxCell>
        <mxCell id="1qNQSLTpCKg1M4f5Vl8u-3" value="" style="shape=partialRectangle;html=1;whiteSpace=wrap;connectable=0;fillColor=none;top=0;left=0;bottom=0;right=0;overflow=hidden;pointerEvents=1;strokeColor=inherit;fontSize=16;" vertex="1" parent="1qNQSLTpCKg1M4f5Vl8u-2">
          <mxGeometry width="40" height="30" as="geometry">
            <mxRectangle width="40" height="30" as="alternateBounds" />
          </mxGeometry>
        </mxCell>
        <mxCell id="1qNQSLTpCKg1M4f5Vl8u-4" value="id_brand" style="shape=partialRectangle;html=1;whiteSpace=wrap;connectable=0;fillColor=none;top=0;left=0;bottom=0;right=0;align=left;spacingLeft=6;overflow=hidden;strokeColor=inherit;fontSize=16;" vertex="1" parent="1qNQSLTpCKg1M4f5Vl8u-2">
          <mxGeometry x="40" width="140" height="30" as="geometry">
            <mxRectangle width="140" height="30" as="alternateBounds" />
          </mxGeometry>
        </mxCell>
        <mxCell id="1qNQSLTpCKg1M4f5Vl8u-5" value="" style="shape=tableRow;horizontal=0;startSize=0;swimlaneHead=0;swimlaneBody=0;top=0;left=0;bottom=0;right=0;collapsible=0;dropTarget=0;fillColor=none;points=[[0,0.5],[1,0.5]];portConstraint=eastwest;strokeColor=inherit;fontSize=16;" vertex="1" parent="1qNQSLTpCKg1M4f5Vl8u-1">
          <mxGeometry y="60" width="180" height="30" as="geometry" />
        </mxCell>
        <mxCell id="1qNQSLTpCKg1M4f5Vl8u-6" value="PK" style="shape=partialRectangle;html=1;whiteSpace=wrap;connectable=0;fillColor=none;top=0;left=0;bottom=0;right=0;overflow=hidden;strokeColor=inherit;fontSize=16;" vertex="1" parent="1qNQSLTpCKg1M4f5Vl8u-5">
          <mxGeometry width="40" height="30" as="geometry">
            <mxRectangle width="40" height="30" as="alternateBounds" />
          </mxGeometry>
        </mxCell>
        <mxCell id="1qNQSLTpCKg1M4f5Vl8u-7" value="name_brand" style="shape=partialRectangle;html=1;whiteSpace=wrap;connectable=0;fillColor=none;top=0;left=0;bottom=0;right=0;align=left;spacingLeft=6;overflow=hidden;strokeColor=inherit;fontSize=16;" vertex="1" parent="1qNQSLTpCKg1M4f5Vl8u-5">
          <mxGeometry x="40" width="140" height="30" as="geometry">
            <mxRectangle width="140" height="30" as="alternateBounds" />
          </mxGeometry>
        </mxCell>
        <mxCell id="1qNQSLTpCKg1M4f5Vl8u-11" value="model" style="shape=table;startSize=30;container=1;collapsible=0;childLayout=tableLayout;fixedRows=1;rowLines=0;fontStyle=0;strokeColor=default;fontSize=16;" vertex="1" parent="1">
          <mxGeometry x="53" y="-33" width="194.90476190476187" height="150" as="geometry" />
        </mxCell>
        <mxCell id="1qNQSLTpCKg1M4f5Vl8u-12" value="" style="shape=tableRow;horizontal=0;startSize=0;swimlaneHead=0;swimlaneBody=0;top=0;left=0;bottom=0;right=0;collapsible=0;dropTarget=0;fillColor=none;points=[[0,0.5],[1,0.5]];portConstraint=eastwest;strokeColor=inherit;fontSize=16;" vertex="1" parent="1qNQSLTpCKg1M4f5Vl8u-11">
          <mxGeometry y="30" width="194.90476190476187" height="30" as="geometry" />
        </mxCell>
        <mxCell id="1qNQSLTpCKg1M4f5Vl8u-13" value="" style="shape=partialRectangle;html=1;whiteSpace=wrap;connectable=0;fillColor=none;top=0;left=0;bottom=0;right=0;overflow=hidden;pointerEvents=1;strokeColor=inherit;fontSize=16;" vertex="1" parent="1qNQSLTpCKg1M4f5Vl8u-12">
          <mxGeometry width="40" height="30" as="geometry">
            <mxRectangle width="40" height="30" as="alternateBounds" />
          </mxGeometry>
        </mxCell>
        <mxCell id="1qNQSLTpCKg1M4f5Vl8u-14" value="id_model" style="shape=partialRectangle;html=1;whiteSpace=wrap;connectable=0;fillColor=none;top=0;left=0;bottom=0;right=0;align=left;spacingLeft=6;overflow=hidden;strokeColor=inherit;fontSize=16;" vertex="1" parent="1qNQSLTpCKg1M4f5Vl8u-12">
          <mxGeometry x="40" width="155" height="30" as="geometry">
            <mxRectangle width="155" height="30" as="alternateBounds" />
          </mxGeometry>
        </mxCell>
        <mxCell id="1qNQSLTpCKg1M4f5Vl8u-21" value="" style="shape=tableRow;horizontal=0;startSize=0;swimlaneHead=0;swimlaneBody=0;top=0;left=0;bottom=0;right=0;collapsible=0;dropTarget=0;fillColor=none;points=[[0,0.5],[1,0.5]];portConstraint=eastwest;strokeColor=inherit;fontSize=16;" vertex="1" parent="1qNQSLTpCKg1M4f5Vl8u-11">
          <mxGeometry y="60" width="194.90476190476187" height="30" as="geometry" />
        </mxCell>
        <mxCell id="1qNQSLTpCKg1M4f5Vl8u-22" value="FK" style="shape=partialRectangle;html=1;whiteSpace=wrap;connectable=0;fillColor=none;top=0;left=0;bottom=0;right=0;overflow=hidden;pointerEvents=1;strokeColor=inherit;fontSize=16;" vertex="1" parent="1qNQSLTpCKg1M4f5Vl8u-21">
          <mxGeometry width="40" height="30" as="geometry">
            <mxRectangle width="40" height="30" as="alternateBounds" />
          </mxGeometry>
        </mxCell>
        <mxCell id="1qNQSLTpCKg1M4f5Vl8u-23" value="id_brand" style="shape=partialRectangle;html=1;whiteSpace=wrap;connectable=0;fillColor=none;top=0;left=0;bottom=0;right=0;align=left;spacingLeft=6;overflow=hidden;strokeColor=inherit;fontSize=16;" vertex="1" parent="1qNQSLTpCKg1M4f5Vl8u-21">
          <mxGeometry x="40" width="155" height="30" as="geometry">
            <mxRectangle width="155" height="30" as="alternateBounds" />
          </mxGeometry>
        </mxCell>
        <mxCell id="1qNQSLTpCKg1M4f5Vl8u-15" value="" style="shape=tableRow;horizontal=0;startSize=0;swimlaneHead=0;swimlaneBody=0;top=0;left=0;bottom=0;right=0;collapsible=0;dropTarget=0;fillColor=none;points=[[0,0.5],[1,0.5]];portConstraint=eastwest;strokeColor=inherit;fontSize=16;" vertex="1" parent="1qNQSLTpCKg1M4f5Vl8u-11">
          <mxGeometry y="90" width="194.90476190476187" height="30" as="geometry" />
        </mxCell>
        <mxCell id="1qNQSLTpCKg1M4f5Vl8u-16" value="" style="shape=partialRectangle;html=1;whiteSpace=wrap;connectable=0;fillColor=none;top=0;left=0;bottom=0;right=0;overflow=hidden;strokeColor=inherit;fontSize=16;" vertex="1" parent="1qNQSLTpCKg1M4f5Vl8u-15">
          <mxGeometry width="40" height="30" as="geometry">
            <mxRectangle width="40" height="30" as="alternateBounds" />
          </mxGeometry>
        </mxCell>
        <mxCell id="1qNQSLTpCKg1M4f5Vl8u-17" value="name model" style="shape=partialRectangle;html=1;whiteSpace=wrap;connectable=0;fillColor=none;top=0;left=0;bottom=0;right=0;align=left;spacingLeft=6;overflow=hidden;strokeColor=inherit;fontSize=16;" vertex="1" parent="1qNQSLTpCKg1M4f5Vl8u-15">
          <mxGeometry x="40" width="155" height="30" as="geometry">
            <mxRectangle width="155" height="30" as="alternateBounds" />
          </mxGeometry>
        </mxCell>
        <mxCell id="1qNQSLTpCKg1M4f5Vl8u-18" value="" style="shape=tableRow;horizontal=0;startSize=0;swimlaneHead=0;swimlaneBody=0;top=0;left=0;bottom=0;right=0;collapsible=0;dropTarget=0;fillColor=none;points=[[0,0.5],[1,0.5]];portConstraint=eastwest;strokeColor=inherit;fontSize=16;" vertex="1" parent="1qNQSLTpCKg1M4f5Vl8u-11">
          <mxGeometry y="120" width="194.90476190476187" height="30" as="geometry" />
        </mxCell>
        <mxCell id="1qNQSLTpCKg1M4f5Vl8u-19" value="" style="shape=partialRectangle;html=1;whiteSpace=wrap;connectable=0;fillColor=none;top=0;left=0;bottom=0;right=0;overflow=hidden;strokeColor=inherit;fontSize=16;" vertex="1" parent="1qNQSLTpCKg1M4f5Vl8u-18">
          <mxGeometry width="40" height="30" as="geometry">
            <mxRectangle width="40" height="30" as="alternateBounds" />
          </mxGeometry>
        </mxCell>
        <mxCell id="1qNQSLTpCKg1M4f5Vl8u-20" value="href" style="shape=partialRectangle;html=1;whiteSpace=wrap;connectable=0;fillColor=none;top=0;left=0;bottom=0;right=0;align=left;spacingLeft=6;overflow=hidden;strokeColor=inherit;fontSize=16;" vertex="1" parent="1qNQSLTpCKg1M4f5Vl8u-18">
          <mxGeometry x="40" width="155" height="30" as="geometry">
            <mxRectangle width="155" height="30" as="alternateBounds" />
          </mxGeometry>
        </mxCell>
        <mxCell id="1qNQSLTpCKg1M4f5Vl8u-26" style="edgeStyle=none;curved=1;rounded=0;orthogonalLoop=1;jettySize=auto;html=1;exitX=1;exitY=0.5;exitDx=0;exitDy=0;entryX=0;entryY=0.5;entryDx=0;entryDy=0;fontSize=12;startSize=8;endSize=8;" edge="1" parent="1" source="1qNQSLTpCKg1M4f5Vl8u-2" target="1qNQSLTpCKg1M4f5Vl8u-21">
          <mxGeometry relative="1" as="geometry" />
        </mxCell>
      </root>
    </mxGraphModel>
  </diagram>
</mxfile>
